<svg width="32" height="32" viewBox="0 0 32 32" fill="none" xmlns="http://www.w3.org/2000/svg">
<path d="M16 32C24.8366 32 32 24.8366 32 16C32 7.16344 24.8366 0 16 0C7.16344 0 0 7.16344 0 16C0 24.8366 7.16344 32 16 32Z" fill="#F4F4F6"/>
<path fill-rule="evenodd" clip-rule="evenodd" d="M12.655 14.6248L16.0016 11.2797L19.3496 14.6276L21.2958 12.6801L16.0016 7.38467L10.7074 12.6787L12.655 14.6248ZM7.38458 16.0004L9.33143 14.0536L11.2783 16.0004L9.33143 17.9472L7.38458 16.0004ZM16.0016 20.7217L12.6549 17.3751L10.7047 19.3199L10.7074 19.3226L16.0016 24.6153L21.2958 19.3199L21.2971 19.3186L19.3496 17.3738L16.0016 20.7217ZM20.7216 16.0007L22.6685 14.054L24.6153 16.0007L22.6685 17.9475L20.7216 16.0007ZM16.0017 14.0233L17.9764 15.9994H17.9778L17.9764 16.0008L16.0017 17.9769L14.0269 16.0035L14.0242 15.9994L14.0269 15.9967L14.3726 15.651L14.5413 15.4836L16.0017 14.0233Z" fill="#F3BA2F"/>
</svg>
