<svg width="32" height="32" viewBox="0 0 32 32" fill="none" xmlns="http://www.w3.org/2000/svg">
<path d="M32.0002 15.9999C32.0002 24.8365 24.8368 32 16.0002 32C7.16349 32 0 24.8365 0 15.9999C0 7.1634 7.16349 0 16.0002 0C24.8367 0 32.0002 7.1634 32.0002 15.9999Z" fill="#F4F4F6"/>
<g opacity="0.8">
<path d="M15.949 8.57596L15.8502 8.91186V18.659L15.949 18.7576L20.4735 16.0832L15.949 8.57596Z" fill="#090A0B"/>
<path d="M15.949 8.57593L11.4244 16.0832L15.949 18.7576V14.0267V8.57593Z" fill="#090A0B"/>
<path d="M15.9489 20.2296L15.8932 20.2975V23.7696L15.9489 23.9323L20.4761 17.5565L15.9489 20.2296Z" fill="#090A0B"/>
<path d="M15.949 23.9323V20.2296L11.4244 17.5565L15.949 23.9323Z" fill="#090A0B"/>
<path d="M15.9489 18.7575L20.4734 16.0831L15.9489 14.0266V18.7575Z" fill="#090A0B"/>
<path d="M11.4244 16.0831L15.9489 18.7575V14.0266L11.4244 16.0831Z" fill="#090A0B"/>
</g>
</svg>
