<svg width="40" height="40" viewBox="0 0 40 40" fill="none" xmlns="http://www.w3.org/2000/svg">
<path d="M20 24.99L15 20.0017L20 15.0117L25 20.0017L20 24.99Z" stroke="black" stroke-width="2" stroke-linecap="round" stroke-linejoin="round"/>
<path d="M32.6267 32.63C32.8883 32.3698 33.0958 32.0605 33.2374 31.7199C33.379 31.3792 33.4519 31.0139 33.4519 30.645C33.4519 30.2761 33.379 29.9108 33.2374 29.5702C33.0958 29.2295 32.8883 28.9202 32.6267 28.66C32.0981 28.1331 31.3822 27.8372 30.6359 27.8372C29.8895 27.8372 29.1736 28.1331 28.645 28.66C28.3835 28.9202 28.176 29.2295 28.0343 29.5702C27.8927 29.9108 27.8198 30.2761 27.8198 30.645C27.8198 31.0139 27.8927 31.3792 28.0343 31.7199C28.176 32.0605 28.3835 32.3698 28.645 32.63C29.745 33.7267 31.5267 33.7267 32.6267 32.63Z" stroke="black" stroke-width="2" stroke-linecap="round" stroke-linejoin="round"/>
<path d="M28.4384 7.62001C25.9445 5.91001 22.9906 4.99648 19.9667 5.00001C19.0617 5.00001 18.1801 5.09334 17.3201 5.24668" stroke="black" stroke-width="2" stroke-linecap="round" stroke-linejoin="round"/>
<path d="M30.6335 6.54668C30.2565 6.5338 29.8808 6.59694 29.5288 6.73233C29.1768 6.86772 28.8556 7.07259 28.5845 7.33473C28.3133 7.59687 28.0977 7.91092 27.9505 8.25815C27.8032 8.60539 27.7274 8.97871 27.7275 9.35587C27.7277 9.73303 27.8037 10.1063 27.9511 10.4535C28.0985 10.8006 28.3144 11.1145 28.5857 11.3765C28.857 11.6385 29.1783 11.8432 29.5304 11.9783C29.8825 12.1135 30.2582 12.1764 30.6351 12.1633C31.0121 12.1762 31.3877 12.1131 31.7398 11.9777C32.0918 11.8423 32.4129 11.6374 32.6841 11.3753C32.9553 11.1132 33.1709 10.7991 33.3181 10.4519C33.4653 10.1046 33.5412 9.73131 33.5411 9.35415C33.5409 8.97699 33.4649 8.60371 33.3175 8.25656C33.17 7.90941 32.9542 7.59549 32.6829 7.33351C32.4116 7.07153 32.0903 6.86685 31.7382 6.73167C31.3861 6.59649 31.0104 6.53358 30.6335 6.54668Z" stroke="black" stroke-width="2" stroke-linecap="round" stroke-linejoin="round"/>
<path d="M7.62501 11.5467C5.91245 14.0334 4.99692 16.9823 5.00001 20.0017C5.00001 20.905 5.09334 21.785 5.24667 22.6433" stroke="black" stroke-width="2" stroke-linecap="round" stroke-linejoin="round"/>
<path d="M6.55005 9.35834C6.55005 10.91 7.80838 12.1667 9.36338 12.165C10.1082 12.1652 10.8226 11.8696 11.3494 11.3431C11.8762 10.8165 12.1723 10.1023 12.1725 9.35751C12.1728 8.61269 11.8771 7.89829 11.3506 7.37147C10.8241 6.84465 10.1099 6.54856 9.36505 6.54834C7.81005 6.54834 6.55005 7.80667 6.55005 9.35834" stroke="black" stroke-width="2" stroke-linecap="round" stroke-linejoin="round"/>
<path d="M32.375 28.455C34.0875 25.9689 35.0031 23.0205 35 20.0017C35 19.0983 34.9067 18.2183 34.7533 17.36" stroke="black" stroke-width="2" stroke-linecap="round" stroke-linejoin="round"/>
<path d="M33.4501 30.645C33.4501 29.0934 32.1918 27.8367 30.6368 27.8384C29.892 27.8381 29.1776 28.1338 28.6508 28.6603C28.1239 29.1868 27.8279 29.901 27.8276 30.6459C27.8274 31.3907 28.1231 32.1051 28.6496 32.6319C29.1761 33.1587 29.8903 33.4548 30.6351 33.455C31.3809 33.455 32.0961 33.1591 32.6239 32.6323C33.1516 32.1055 33.4488 31.3907 33.4501 30.645" stroke="black" stroke-width="2" stroke-linecap="round" stroke-linejoin="round"/>
<path d="M11.5618 32.38C14.0557 34.09 17.0096 35.0035 20.0334 35C20.9384 35 21.8201 34.9067 22.6801 34.7533" stroke="black" stroke-width="2" stroke-linecap="round" stroke-linejoin="round"/>
<path d="M9.36682 33.4534C9.74376 33.4662 10.1194 33.4031 10.4715 33.2677C10.8235 33.1323 11.1446 32.9275 11.4158 32.6653C11.687 32.4032 11.9026 32.0891 12.0498 31.7419C12.197 31.3946 12.2729 31.0213 12.2728 30.6442C12.2726 30.267 12.1966 29.8937 12.0492 29.5466C11.9017 29.1994 11.6859 28.8855 11.4146 28.6235C11.1433 28.3615 10.822 28.1569 10.4699 28.0217C10.1178 27.8865 9.74209 27.8236 9.36516 27.8367C8.98822 27.8238 8.61254 27.8869 8.26052 28.0223C7.9085 28.1577 7.58734 28.3626 7.31617 28.6247C7.045 28.8869 6.82938 29.2009 6.68216 29.5482C6.53493 29.8954 6.45912 30.2687 6.45923 30.6459C6.45934 31.023 6.53538 31.3963 6.68281 31.7435C6.83024 32.0906 7.04605 32.4045 7.31737 32.6665C7.58869 32.9285 7.90998 33.1332 8.26208 33.2684C8.61418 33.4035 8.98989 33.4665 9.36682 33.4534" stroke="black" stroke-width="2" stroke-linecap="round" stroke-linejoin="round"/>
</svg>
